<svg width="193" height="51" viewBox="0 0 193 51" fill="none" xmlns="http://www.w3.org/2000/svg">
<path d="M9.51168 26.5736C7.9701 26.5736 6.53608 26.1852 5.20961 25.4085C3.89509 24.6317 2.83152 23.5383 2.01891 22.1281C1.21824 20.718 0.817911 19.0689 0.817911 17.1808C0.817911 15.1134 1.21824 13.3866 2.01891 12.0004C2.83152 10.6022 3.89509 9.55056 5.20961 8.8455C6.53608 8.12849 7.9701 7.76998 9.51168 7.76998C10.8142 7.76998 11.9495 7.99106 12.9175 8.43322C13.8974 8.87538 14.71 9.45496 15.3553 10.172C16.0006 10.889 16.4786 11.6777 16.7893 12.5381C17.112 13.3985 17.2733 14.241 17.2733 15.0656L11.5372 15.0118C11.4536 14.4979 11.2445 14.0319 10.9098 13.6136C10.5872 13.1834 10.1092 12.9683 9.47582 12.9683C8.97392 12.9683 8.49591 13.0998 8.0418 13.3627C7.59964 13.6136 7.23516 14.0438 6.94836 14.6533C6.6735 15.2628 6.53608 16.1052 6.53608 17.1808C6.53608 18.2324 6.6735 19.0629 6.94836 19.6724C7.23516 20.2818 7.59964 20.712 8.0418 20.963C8.49591 21.2139 8.97392 21.3394 9.47582 21.3394C10.2884 21.3394 10.8322 21.1542 11.107 20.7837C11.3938 20.4013 11.5372 19.9233 11.5372 19.3497H17.2733C17.2733 20.6164 16.9925 21.7995 16.4308 22.8989C15.8692 23.9983 15.0147 24.8886 13.8675 25.5698C12.7323 26.239 11.2803 26.5736 9.51168 26.5736ZM29.3351 26.5736C27.6979 26.5736 26.1922 26.239 24.8179 25.5698C23.4556 24.8886 22.3621 23.8609 21.5376 22.4866C20.725 21.1004 20.3187 19.3437 20.3187 17.2166C20.3187 15.0178 20.725 13.2252 21.5376 11.839C22.3621 10.4528 23.4556 9.43106 24.8179 8.7738C26.1922 8.10459 27.6979 7.76998 29.3351 7.76998C30.9364 7.76998 32.4123 8.10459 33.7626 8.7738C35.113 9.43106 36.1945 10.4528 37.0071 11.839C37.8317 13.2252 38.2439 15.0178 38.2439 17.2166C38.2439 19.3437 37.8317 21.1004 37.0071 22.4866C36.1945 23.8609 35.113 24.8886 33.7626 25.5698C32.4123 26.239 30.9364 26.5736 29.3351 26.5736ZM29.12 21.5725C29.6697 21.5725 30.2015 21.4291 30.7153 21.1422C31.2411 20.8554 31.6773 20.3954 32.0239 19.762C32.3704 19.1167 32.5437 18.2682 32.5437 17.2166C32.5437 15.5794 32.2509 14.4262 31.6654 13.757C31.0798 13.0878 30.3747 12.7532 29.5502 12.7532C29.0005 12.7532 28.4508 12.8966 27.9011 13.1834C27.3633 13.4702 26.9152 13.9423 26.5567 14.5995C26.2101 15.2448 26.0368 16.1172 26.0368 17.2166C26.0368 18.806 26.3416 19.9293 26.951 20.5866C27.5724 21.2438 28.2954 21.5725 29.12 21.5725ZM54.535 26V15.7109C54.535 14.7788 54.3079 14.0916 53.8538 13.6495C53.3997 13.1954 52.85 12.9683 52.2047 12.9683C51.5474 12.9683 50.9439 13.1535 50.3942 13.524C49.8445 13.8945 49.4023 14.492 49.0677 15.3165C48.7451 16.1291 48.5838 17.2106 48.5838 18.561H46.845C46.845 16.0276 47.1438 13.9662 47.7413 12.3768C48.3507 10.7874 49.1753 9.62226 50.215 8.88135C51.2666 8.14044 52.4556 7.76998 53.7821 7.76998C55.2998 7.76998 56.5366 8.11056 57.4926 8.79173C58.4606 9.47289 59.1716 10.411 59.6257 11.606C60.0798 12.801 60.3069 14.1693 60.3069 15.7109V26H54.535ZM42.8477 26V8.34359H47.9026L48.5838 11.2654V26H42.8477ZM66.995 26V6.80202C66.995 5.4158 67.2698 4.29248 67.8195 3.43206C68.3693 2.57165 69.0863 1.94427 69.9706 1.54991C70.8549 1.1436 71.787 0.940449 72.7669 0.940449C73.4361 0.940449 74.1412 0.98825 74.8821 1.08385C75.623 1.1675 76.3341 1.25713 77.0152 1.35273L75.8859 5.70858C75.6469 5.64882 75.384 5.58907 75.0972 5.52932C74.8224 5.46957 74.5415 5.4397 74.2547 5.4397C73.9679 5.4397 73.717 5.49347 73.5019 5.60103C73.2868 5.70858 73.1195 5.87588 73 6.10293C72.8805 6.31804 72.8207 6.58692 72.8207 6.90957V26H66.995ZM64.6468 12.0541V8.34359H75.635V12.0541H64.6468ZM87.0912 26.5736C85.6094 26.5736 84.2172 26.1912 82.9146 25.4264C81.612 24.6616 80.5544 23.5681 79.7418 22.1461C78.9412 20.724 78.5408 19.039 78.5408 17.0911C78.5408 15.1433 78.9412 13.4762 79.7418 12.09C80.5425 10.6918 81.5941 9.62226 82.8967 8.88135C84.1992 8.14044 85.5974 7.76998 87.0912 7.76998C88.573 7.76998 89.8636 8.06874 90.9631 8.66625C92.0625 9.25181 92.9468 10.0465 93.616 11.0503C94.2972 12.0541 94.7393 13.1894 94.9425 14.4561C95.1576 15.7109 95.1157 17.0075 94.817 18.3459H83.0759V15.442H90.6225L89.7979 15.9798C89.8338 15.5615 89.8158 15.1373 89.7441 14.7071C89.6844 14.2769 89.5589 13.8825 89.3677 13.524C89.1765 13.1535 88.9016 12.8608 88.5431 12.6457C88.1966 12.4186 87.7484 12.3051 87.1987 12.3051C86.5893 12.3051 86.0575 12.4545 85.6034 12.7532C85.1612 13.04 84.8147 13.4642 84.5637 14.0259C84.3247 14.5756 84.2052 15.2508 84.2052 16.0515V18.3101C84.2052 19.0629 84.3128 19.7142 84.5279 20.2639C84.743 20.8136 85.0597 21.2438 85.4779 21.5545C85.9081 21.8533 86.4459 22.0027 87.0912 22.0027C87.617 22.0027 88.0771 21.8951 88.4714 21.68C88.8658 21.4649 89.1406 21.1243 89.296 20.6583H94.9962C94.817 21.7577 94.3748 22.7555 93.6698 23.6518C92.9767 24.5481 92.0684 25.2591 90.9451 25.7849C89.8338 26.3107 88.5491 26.5736 87.0912 26.5736ZM99.6694 26V8.23604H105.406V26H99.6694ZM104.187 18.4714C104.187 16.0694 104.491 14.0976 105.101 12.556C105.71 11.0145 106.481 9.87322 107.413 9.13231C108.345 8.39139 109.295 8.02094 110.263 8.02094C110.454 8.02094 110.646 8.03289 110.837 8.05679C111.028 8.06874 111.207 8.09264 111.375 8.12849L111.428 13.9004C111.13 13.8646 110.825 13.8407 110.514 13.8287C110.204 13.8048 109.911 13.7929 109.636 13.7929C108.799 13.7929 108.058 13.9482 107.413 14.2589C106.78 14.5696 106.284 15.0656 105.925 15.7467C105.579 16.4279 105.406 17.3361 105.406 18.4714H104.187ZM121.961 26.5736C120.48 26.5736 119.087 26.1912 117.785 25.4264C116.482 24.6616 115.425 23.5681 114.612 22.1461C113.811 20.724 113.411 19.039 113.411 17.0911C113.411 15.1433 113.811 13.4762 114.612 12.09C115.413 10.6918 116.464 9.62226 117.767 8.88135C119.07 8.14044 120.468 7.76998 121.961 7.76998C123.443 7.76998 124.734 8.06874 125.833 8.66625C126.933 9.25181 127.817 10.0465 128.486 11.0503C129.167 12.0541 129.61 13.1894 129.813 14.4561C130.028 15.7109 129.986 17.0075 129.687 18.3459H117.946V15.442H125.493L124.668 15.9798C124.704 15.5615 124.686 15.1373 124.614 14.7071C124.555 14.2769 124.429 13.8825 124.238 13.524C124.047 13.1535 123.772 12.8608 123.413 12.6457C123.067 12.4186 122.619 12.3051 122.069 12.3051C121.46 12.3051 120.928 12.4545 120.474 12.7532C120.032 13.04 119.685 13.4642 119.434 14.0259C119.195 14.5756 119.076 15.2508 119.076 16.0515V18.3101C119.076 19.0629 119.183 19.7142 119.398 20.2639C119.613 20.8136 119.93 21.2438 120.348 21.5545C120.778 21.8533 121.316 22.0027 121.961 22.0027C122.487 22.0027 122.947 21.8951 123.342 21.68C123.736 21.4649 124.011 21.1243 124.166 20.6583H129.867C129.687 21.7577 129.245 22.7555 128.54 23.6518C127.847 24.5481 126.939 25.2591 125.815 25.7849C124.704 26.3107 123.419 26.5736 121.961 26.5736ZM146.227 26V15.7109C146.227 14.7788 146 14.0916 145.546 13.6495C145.092 13.1954 144.542 12.9683 143.897 12.9683C143.239 12.9683 142.636 13.1535 142.086 13.524C141.537 13.8945 141.094 14.492 140.76 15.3165C140.437 16.1291 140.276 17.2106 140.276 18.561H138.537C138.537 16.0276 138.836 13.9662 139.433 12.3768C140.043 10.7874 140.867 9.62226 141.907 8.88135C142.959 8.14044 144.148 7.76998 145.474 7.76998C146.992 7.76998 148.229 8.11056 149.185 8.79173C150.153 9.47289 150.864 10.411 151.318 11.606C151.772 12.801 151.999 14.1693 151.999 15.7109V26H146.227ZM134.54 26V8.34359H139.595L140.276 11.2654V26H134.54ZM164.817 26.5736C163.276 26.5736 161.842 26.1852 160.515 25.4085C159.201 24.6317 158.137 23.5383 157.325 22.1281C156.524 20.718 156.124 19.0689 156.124 17.1808C156.124 15.1134 156.524 13.3866 157.325 12.0004C158.137 10.6022 159.201 9.55056 160.515 8.8455C161.842 8.12849 163.276 7.76998 164.817 7.76998C166.12 7.76998 167.255 7.99106 168.223 8.43322C169.203 8.87538 170.016 9.45496 170.661 10.172C171.306 10.889 171.784 11.6777 172.095 12.5381C172.418 13.3985 172.579 14.241 172.579 15.0656L166.843 15.0118C166.759 14.4979 166.55 14.0319 166.216 13.6136C165.893 13.1834 165.415 12.9683 164.782 12.9683C164.28 12.9683 163.802 13.0998 163.348 13.3627C162.905 13.6136 162.541 14.0438 162.254 14.6533C161.979 15.2628 161.842 16.1052 161.842 17.1808C161.842 18.2324 161.979 19.0629 162.254 19.6724C162.541 20.2818 162.905 20.712 163.348 20.963C163.802 21.2139 164.28 21.3394 164.782 21.3394C165.594 21.3394 166.138 21.1542 166.413 20.7837C166.7 20.4013 166.843 19.9233 166.843 19.3497H172.579C172.579 20.6164 172.298 21.7995 171.737 22.8989C171.175 23.9983 170.321 24.8886 169.173 25.5698C168.038 26.239 166.586 26.5736 164.817 26.5736ZM184.175 26.5736C182.693 26.5736 181.301 26.1912 179.998 25.4264C178.696 24.6616 177.638 23.5681 176.825 22.1461C176.025 20.724 175.624 19.039 175.624 17.0911C175.624 15.1433 176.025 13.4762 176.825 12.09C177.626 10.6918 178.678 9.62226 179.98 8.88135C181.283 8.14044 182.681 7.76998 184.175 7.76998C185.657 7.76998 186.947 8.06874 188.047 8.66625C189.146 9.25181 190.03 10.0465 190.7 11.0503C191.381 12.0541 191.823 13.1894 192.026 14.4561C192.241 15.7109 192.199 17.0075 191.901 18.3459H180.16V15.442H187.706L186.882 15.9798C186.917 15.5615 186.899 15.1373 186.828 14.7071C186.768 14.2769 186.643 13.8825 186.451 13.524C186.26 13.1535 185.985 12.8608 185.627 12.6457C185.28 12.4186 184.832 12.3051 184.282 12.3051C183.673 12.3051 183.141 12.4545 182.687 12.7532C182.245 13.04 181.898 13.4642 181.647 14.0259C181.408 14.5756 181.289 15.2508 181.289 16.0515V18.3101C181.289 19.0629 181.396 19.7142 181.611 20.2639C181.827 20.8136 182.143 21.2438 182.562 21.5545C182.992 21.8533 183.529 22.0027 184.175 22.0027C184.701 22.0027 185.161 21.8951 185.555 21.68C185.949 21.4649 186.224 21.1243 186.38 20.6583H192.08C191.901 21.7577 191.458 22.7555 190.753 23.6518C190.06 24.5481 189.152 25.2591 188.029 25.7849C186.917 26.3107 185.633 26.5736 184.175 26.5736Z" fill="#F7F7F9"/>
<path d="M43.4151 50.9212C41.8466 50.9212 40.5545 50.6635 39.5387 50.1481C38.523 49.6328 37.7686 48.9158 37.2757 47.9971C36.7902 47.0859 36.5475 46.0365 36.5475 44.849V42.81C36.5475 42.2274 36.5064 41.8353 36.4242 41.6336C36.3495 41.4245 36.1666 41.3199 35.8753 41.3199H35.1358V37.634H35.8753C36.1666 37.634 36.3495 37.5369 36.4242 37.3428C36.5064 37.1486 36.5475 36.749 36.5475 36.144V34.0826C36.5475 32.895 36.7902 31.8531 37.2757 30.9569C37.7686 30.0606 38.523 29.3623 39.5387 28.8619C40.5545 28.354 41.8466 28.1 43.4151 28.1V31.349C42.3172 31.349 41.4919 31.5619 40.9392 31.9876C40.3865 32.4058 40.1101 33.1266 40.1101 34.1498V36.3681C40.1101 37.1075 39.9346 37.7386 39.5836 38.2614C39.24 38.7768 38.8143 39.1577 38.3064 39.4042V39.5722C38.8143 39.8187 39.24 40.2033 39.5836 40.7262C39.9346 41.2415 40.1101 41.8689 40.1101 42.6083V44.8266C40.1101 45.8498 40.3865 46.5743 40.9392 47C41.4919 47.4183 42.3172 47.6274 43.4151 47.6274V50.9212ZM49.7908 47.3585C48.8273 47.3585 47.9311 47.1158 47.102 46.6303C46.2804 46.1448 45.6157 45.4614 45.1078 44.5801C44.6074 43.6988 44.3572 42.6681 44.3572 41.488C44.3572 40.1959 44.6074 39.1166 45.1078 38.2502C45.6157 37.3764 46.2804 36.7191 47.102 36.2784C47.9311 35.8303 48.8273 35.6062 49.7908 35.6062C50.6049 35.6062 51.3145 35.7444 51.9194 36.0208C52.5319 36.2971 53.0398 36.6594 53.4431 37.1075C53.8464 37.5556 54.1452 38.0486 54.3394 38.5863C54.541 39.1241 54.6418 39.6506 54.6418 40.166L51.0568 40.1324C51.0045 39.8112 50.8738 39.5199 50.6647 39.2585C50.463 38.9896 50.1643 38.8552 49.7684 38.8552C49.4547 38.8552 49.156 38.9374 48.8721 39.1017C48.5958 39.2585 48.368 39.5274 48.1887 39.9083C48.017 40.2892 47.9311 40.8158 47.9311 41.488C47.9311 42.1452 48.017 42.6643 48.1887 43.0452C48.368 43.4261 48.5958 43.695 48.8721 43.8519C49.156 44.0087 49.4547 44.0871 49.7684 44.0871C50.2763 44.0871 50.6161 43.9714 50.7879 43.7398C50.9672 43.5008 51.0568 43.2021 51.0568 42.8436H54.6418C54.6418 43.6353 54.4663 44.3747 54.1153 45.0618C53.7643 45.749 53.2302 46.3054 52.5132 46.7311C51.8037 47.1494 50.8962 47.3585 49.7908 47.3585ZM62.1804 47.3585C61.1572 47.3585 60.2161 47.1494 59.3572 46.7311C58.5058 46.3054 57.8224 45.6631 57.307 44.8042C56.7991 43.9378 56.5452 42.8398 56.5452 41.5104C56.5452 40.1361 56.7991 39.0158 57.307 38.1494C57.8224 37.283 58.5058 36.6444 59.3572 36.2336C60.2161 35.8154 61.1572 35.6062 62.1804 35.6062C63.1813 35.6062 64.1037 35.8154 64.9477 36.2336C65.7916 36.6444 66.4676 37.283 66.9755 38.1494C67.4908 39.0158 67.7485 40.1361 67.7485 41.5104C67.7485 42.8398 67.4908 43.9378 66.9755 44.8042C66.4676 45.6631 65.7916 46.3054 64.9477 46.7311C64.1037 47.1494 63.1813 47.3585 62.1804 47.3585ZM62.046 44.2328C62.3896 44.2328 62.7219 44.1432 63.0431 43.9639C63.3717 43.7847 63.6443 43.4971 63.8609 43.1013C64.0775 42.6979 64.1858 42.1676 64.1858 41.5104C64.1858 40.4871 64.0028 39.7664 63.6369 39.3481C63.2709 38.9299 62.8302 38.7208 62.3149 38.7208C61.9713 38.7208 61.6277 38.8104 61.2842 38.9896C60.9481 39.1689 60.668 39.4639 60.4439 39.8747C60.2273 40.278 60.119 40.8232 60.119 41.5104C60.119 42.5037 60.3095 43.2058 60.6904 43.6166C61.0788 44.0274 61.5306 44.2328 62.046 44.2328ZM70.6258 47V31.5394H74.2109V47H70.6258ZM78.0217 47V31.5394H81.6068V47H78.0217ZM89.8318 47.3585C88.9056 47.3585 88.0355 47.1195 87.2214 46.6415C86.4073 46.1635 85.7463 45.4801 85.2384 44.5913C84.738 43.7025 84.4878 42.6494 84.4878 41.432C84.4878 40.2145 84.738 39.1726 85.2384 38.3062C85.7388 37.4324 86.3961 36.7639 87.2102 36.3008C88.0243 35.8378 88.8982 35.6062 89.8318 35.6062C90.7579 35.6062 91.5645 35.793 92.2517 36.1664C92.9388 36.5324 93.4915 37.0291 93.9098 37.6564C94.3355 38.2838 94.6118 38.9934 94.7388 39.7851C94.8733 40.5693 94.8471 41.3797 94.6604 42.2162H87.3222V40.4013H92.0388L91.5235 40.7374C91.5459 40.4759 91.5347 40.2108 91.4899 39.9419C91.4525 39.673 91.3741 39.4266 91.2546 39.2025C91.1351 38.971 90.9633 38.788 90.7392 38.6535C90.5226 38.5116 90.2426 38.4407 89.899 38.4407C89.5181 38.4407 89.1857 38.534 88.9019 38.7208C88.6255 38.9 88.4089 39.1652 88.2521 39.5162C88.1027 39.8598 88.028 40.2818 88.028 40.7822V42.1938C88.028 42.6643 88.0953 43.0714 88.2297 43.4149C88.3641 43.7585 88.5621 44.0274 88.8235 44.2216C89.0923 44.4083 89.4284 44.5017 89.8318 44.5017C90.1604 44.5017 90.4479 44.4344 90.6944 44.3C90.9409 44.1656 91.1127 43.9527 91.2098 43.6614H94.7724C94.6604 44.3486 94.384 44.9722 93.9434 45.5324C93.5102 46.0925 92.9425 46.5369 92.2405 46.8656C91.5459 47.1942 90.743 47.3585 89.8318 47.3585ZM102.197 47.3585C101.233 47.3585 100.337 47.1158 99.5081 46.6303C98.6865 46.1448 98.0218 45.4614 97.5139 44.5801C97.0135 43.6988 96.7633 42.6681 96.7633 41.488C96.7633 40.1959 97.0135 39.1166 97.5139 38.2502C98.0218 37.3764 98.6865 36.7191 99.5081 36.2784C100.337 35.8303 101.233 35.6062 102.197 35.6062C103.011 35.6062 103.721 35.7444 104.326 36.0208C104.938 36.2971 105.446 36.6594 105.849 37.1075C106.252 37.5556 106.551 38.0486 106.745 38.5863C106.947 39.1241 107.048 39.6506 107.048 40.166L103.463 40.1324C103.411 39.8112 103.28 39.5199 103.071 39.2585C102.869 38.9896 102.57 38.8552 102.174 38.8552C101.861 38.8552 101.562 38.9374 101.278 39.1017C101.002 39.2585 100.774 39.5274 100.595 39.9083C100.423 40.2892 100.337 40.8158 100.337 41.488C100.337 42.1452 100.423 42.6643 100.595 43.0452C100.774 43.4261 101.002 43.695 101.278 43.8519C101.562 44.0087 101.861 44.0871 102.174 44.0871C102.682 44.0871 103.022 43.9714 103.194 43.7398C103.373 43.5008 103.463 43.2021 103.463 42.8436H107.048C107.048 43.6353 106.872 44.3747 106.521 45.0618C106.17 45.749 105.636 46.3054 104.919 46.7311C104.21 47.1494 103.302 47.3585 102.197 47.3585ZM113.959 47.3585C113.257 47.3585 112.6 47.2315 111.987 46.9776C111.382 46.7237 110.893 46.3278 110.52 45.79C110.154 45.2448 109.971 44.5465 109.971 43.695V33.1751H113.578V43.5606C113.578 44.2328 113.911 44.5689 114.575 44.5689C114.784 44.5689 115.005 44.5465 115.236 44.5017C115.475 44.4494 115.752 44.3672 116.065 44.2552L116.592 46.7535C116.136 46.9178 115.699 47.0598 115.281 47.1793C114.87 47.2988 114.43 47.3585 113.959 47.3585ZM108.66 38.2838V35.9647H116.088V38.2838H108.66ZM121.299 34.5419C120.619 34.5419 120.092 34.3701 119.719 34.0266C119.353 33.6755 119.17 33.1826 119.17 32.5477C119.17 31.9278 119.353 31.4349 119.719 31.0689C120.092 30.6955 120.619 30.5087 121.299 30.5087C121.956 30.5087 122.475 30.6955 122.856 31.0689C123.237 31.4349 123.427 31.9278 123.427 32.5477C123.427 33.1826 123.237 33.6755 122.856 34.0266C122.475 34.3701 121.956 34.5419 121.299 34.5419ZM119.506 47V35.8975H123.091V47H119.506ZM125.441 35.9647H129.598L131.401 43.9415H131.244L133.048 35.9647H137.193L133.373 47H129.261L125.441 35.9647ZM143.638 47.3585C142.712 47.3585 141.842 47.1195 141.028 46.6415C140.214 46.1635 139.553 45.4801 139.045 44.5913C138.544 43.7025 138.294 42.6494 138.294 41.432C138.294 40.2145 138.544 39.1726 139.045 38.3062C139.545 37.4324 140.203 36.7639 141.017 36.3008C141.831 35.8378 142.705 35.6062 143.638 35.6062C144.564 35.6062 145.371 35.793 146.058 36.1664C146.745 36.5324 147.298 37.0291 147.716 37.6564C148.142 38.2838 148.418 38.9934 148.545 39.7851C148.68 40.5693 148.654 41.3797 148.467 42.2162H141.129V40.4013H145.845L145.33 40.7374C145.352 40.4759 145.341 40.2108 145.296 39.9419C145.259 39.673 145.181 39.4266 145.061 39.2025C144.942 38.971 144.77 38.788 144.546 38.6535C144.329 38.5116 144.049 38.4407 143.705 38.4407C143.325 38.4407 142.992 38.534 142.708 38.7208C142.432 38.9 142.215 39.1652 142.059 39.5162C141.909 39.8598 141.835 40.2818 141.835 40.7822V42.1938C141.835 42.6643 141.902 43.0714 142.036 43.4149C142.171 43.7585 142.369 44.0274 142.63 44.2216C142.899 44.4083 143.235 44.5017 143.638 44.5017C143.967 44.5017 144.254 44.4344 144.501 44.3C144.747 44.1656 144.919 43.9527 145.016 43.6614H148.579C148.467 44.3486 148.191 44.9722 147.75 45.5324C147.317 46.0925 146.749 46.5369 146.047 46.8656C145.352 47.1942 144.549 47.3585 143.638 47.3585ZM149.595 50.9212V47.6274C150.693 47.6274 151.518 47.4183 152.071 47C152.624 46.5743 152.9 45.8498 152.9 44.8266V42.6083C152.9 41.8689 153.072 41.2415 153.415 40.7262C153.766 40.2033 154.196 39.8187 154.704 39.5722V39.4042C154.196 39.1577 153.766 38.7768 153.415 38.2614C153.072 37.7386 152.9 37.1075 152.9 36.3681V34.1498C152.9 33.1266 152.624 32.4058 152.071 31.9876C151.518 31.5619 150.693 31.349 149.595 31.349V28.1C151.164 28.1 152.456 28.354 153.471 28.8619C154.487 29.3623 155.238 30.0606 155.723 30.9569C156.216 31.8531 156.463 32.895 156.463 34.0826V36.144C156.463 36.749 156.5 37.1486 156.575 37.3428C156.657 37.5369 156.844 37.634 157.135 37.634H157.874V41.3199H157.135C156.844 41.3199 156.657 41.4245 156.575 41.6336C156.5 41.8353 156.463 42.2274 156.463 42.81V44.849C156.463 46.0365 156.216 47.0859 155.723 47.9971C155.238 48.9158 154.487 49.6328 153.471 50.1481C152.456 50.6635 151.164 50.9212 149.595 50.9212Z" fill="#D9D9FF"/>
</svg>
