<svg width="300" height="68" viewBox="0 0 300 68" fill="none" xmlns="http://www.w3.org/2000/svg">
<path d="M16.3787 40.5211C13.2767 40.5211 10.6213 39.9069 8.4127 38.6785C6.20406 37.4377 4.51035 35.713 3.33158 33.5044C2.15281 31.2833 1.56342 28.7086 1.56342 25.7803C1.56342 22.852 2.15281 20.2835 3.33158 18.0749C4.51035 15.8538 6.20406 14.1291 8.4127 12.9007C10.6213 11.6599 13.2767 11.0395 16.3787 11.0395C19.1829 11.0395 21.6087 11.5482 23.6561 12.5657C25.7158 13.5707 27.3103 14.9977 28.4394 16.8465C29.5685 18.6829 30.1393 20.8419 30.1517 23.3235H20.6223C20.4858 21.8221 20.0515 20.6806 19.3194 19.8989C18.5998 19.1047 17.6692 18.7077 16.5276 18.7077C15.6342 18.7077 14.8525 18.9682 14.1825 19.4894C13.5124 19.9981 12.9913 20.7736 12.6191 21.8159C12.2468 22.8458 12.0607 24.1424 12.0607 25.7059C12.0607 27.2693 12.2468 28.5721 12.6191 29.6144C12.9913 30.6443 13.5124 31.4198 14.1825 31.9409C14.8525 32.4497 15.6342 32.704 16.5276 32.704C17.2845 32.704 17.9545 32.5303 18.5377 32.1829C19.1209 31.8231 19.5924 31.3019 19.9522 30.6195C20.3245 29.9246 20.5478 29.0809 20.6223 28.0882H30.1517C30.1145 30.6071 29.5375 32.8033 28.4208 34.6769C27.3041 36.5381 25.722 37.9775 23.6747 38.9949C21.6397 40.0124 19.2078 40.5211 16.3787 40.5211ZM48.1636 40.5211C45.0616 40.5211 42.4063 39.9069 40.1976 38.6785C37.989 37.4377 36.2953 35.713 35.1165 33.5044C33.9377 31.2833 33.3484 28.7086 33.3484 25.7803C33.3484 22.852 33.9377 20.2835 35.1165 18.0749C36.2953 15.8538 37.989 14.1291 40.1976 12.9007C42.4063 11.6599 45.0616 11.0395 48.1636 11.0395C51.2657 11.0395 53.921 11.6599 56.1297 12.9007C58.3383 14.1291 60.032 15.8538 61.2108 18.0749C62.3895 20.2835 62.9789 22.852 62.9789 25.7803C62.9789 28.7086 62.3895 31.2833 61.2108 33.5044C60.032 35.713 58.3383 37.4377 56.1297 38.6785C53.921 39.9069 51.2657 40.5211 48.1636 40.5211ZM48.2381 32.9274C49.1067 32.9274 49.8573 32.6358 50.4902 32.0526C51.123 31.4694 51.6131 30.6381 51.9605 29.5586C52.308 28.4791 52.4817 27.1948 52.4817 25.7059C52.4817 24.2045 52.308 22.9202 51.9605 21.8531C51.6131 20.7736 51.123 19.9423 50.4902 19.3591C49.8573 18.7759 49.1067 18.4843 48.2381 18.4843C47.3199 18.4843 46.532 18.7759 45.8743 19.3591C45.2167 19.9423 44.7142 20.7736 44.3668 21.8531C44.0193 22.9202 43.8456 24.2045 43.8456 25.7059C43.8456 27.1948 44.0193 28.4791 44.3668 29.5586C44.7142 30.6381 45.2167 31.4694 45.8743 32.0526C46.532 32.6358 47.3199 32.9274 48.2381 32.9274ZM77.422 23.9191V40H67.1481V11.4117H76.9008V16.8465H77.1986C77.819 15.0349 78.9109 13.6141 80.4744 12.5843C82.0502 11.5544 83.8866 11.0395 85.9836 11.0395C88.0061 11.0395 89.7618 11.5048 91.2508 12.4354C92.7522 13.3536 93.9124 14.6192 94.7313 16.2323C95.5626 17.8453 95.9721 19.6879 95.9597 21.7601V40H85.6858V23.9191C85.6982 22.5046 85.3383 21.394 84.6063 20.5875C83.8866 19.781 82.8815 19.3777 81.5911 19.3777C80.7473 19.3777 80.0091 19.5638 79.3762 19.9361C78.7558 20.2959 78.2781 20.8171 77.9431 21.4995C77.6081 22.1695 77.4344 22.9761 77.422 23.9191ZM118.155 11.4117V18.8566H99.0214V11.4117H118.155ZM102.669 40V10.5928C102.669 8.23523 103.091 6.28095 103.935 4.72994C104.779 3.17892 105.97 2.01877 107.509 1.24946C109.047 0.480158 110.859 0.0955062 112.943 0.0955062C114.246 0.0955062 115.512 0.194772 116.74 0.393304C117.981 0.591833 118.899 0.765546 119.495 0.914442L118.006 8.28486C117.634 8.17319 117.199 8.08633 116.703 8.02429C116.207 7.94984 115.772 7.91262 115.4 7.91262C114.432 7.91262 113.781 8.11735 113.446 8.52682C113.111 8.93629 112.943 9.47604 112.943 10.1461V40H102.669ZM134.948 40.5211C131.895 40.5211 129.265 39.938 127.056 38.7716C124.86 37.5928 123.166 35.9053 121.975 33.7091C120.796 31.5004 120.207 28.8575 120.207 25.7803C120.207 22.8272 120.802 20.2463 121.993 18.0376C123.185 15.829 124.866 14.1105 127.037 12.8821C129.209 11.6537 131.771 11.0395 134.724 11.0395C136.883 11.0395 138.837 11.3745 140.587 12.0445C142.337 12.7146 143.832 13.6886 145.073 14.9666C146.313 16.2323 147.269 17.7709 147.939 19.5825C148.609 21.394 148.944 23.4352 148.944 25.7059V28.0882H123.408V22.4301H139.489C139.476 21.6112 139.266 20.8915 138.856 20.2711C138.459 19.6383 137.919 19.1482 137.237 18.8007C136.567 18.4409 135.804 18.261 134.948 18.261C134.116 18.261 133.353 18.4409 132.658 18.8007C131.963 19.1482 131.405 19.6321 130.983 20.2525C130.574 20.8729 130.357 21.5988 130.332 22.4301V28.5349C130.332 29.4531 130.524 30.272 130.909 30.9917C131.293 31.7114 131.846 32.2759 132.565 32.6854C133.285 33.0949 134.153 33.2996 135.171 33.2996C135.878 33.2996 136.523 33.2004 137.107 33.0018C137.702 32.8033 138.211 32.5179 138.633 32.1457C139.055 31.761 139.365 31.3019 139.563 30.7684H148.944C148.621 32.7537 147.858 34.4784 146.655 35.9425C145.451 37.3943 143.857 38.5234 141.871 39.33C139.898 40.1241 137.59 40.5211 134.948 40.5211ZM153.136 40V11.4117H163.112V16.8465H163.41C163.931 14.8363 164.756 13.366 165.886 12.4354C167.027 11.5048 168.361 11.0395 169.887 11.0395C170.334 11.0395 170.774 11.0767 171.209 11.1511C171.655 11.2132 172.083 11.3062 172.493 11.4303V20.1967C171.984 20.0229 171.358 19.8927 170.613 19.8058C169.869 19.7189 169.23 19.6755 168.696 19.6755C167.691 19.6755 166.785 19.9051 165.979 20.3642C165.185 20.8109 164.558 21.4437 164.099 22.2626C163.64 23.0691 163.41 24.0184 163.41 25.1103V40H153.136ZM187.922 40.5211C184.87 40.5211 182.24 39.938 180.031 38.7716C177.835 37.5928 176.141 35.9053 174.95 33.7091C173.771 31.5004 173.182 28.8575 173.182 25.7803C173.182 22.8272 173.777 20.2463 174.968 18.0376C176.16 15.829 177.841 14.1105 180.012 12.8821C182.184 11.6537 184.746 11.0395 187.699 11.0395C189.858 11.0395 191.812 11.3745 193.562 12.0445C195.311 12.7146 196.807 13.6886 198.047 14.9666C199.288 16.2323 200.244 17.7709 200.914 19.5825C201.584 21.394 201.919 23.4352 201.919 25.7059V28.0882H176.383V22.4301H192.464C192.451 21.6112 192.24 20.8915 191.831 20.2711C191.434 19.6383 190.894 19.1482 190.212 18.8007C189.542 18.4409 188.779 18.261 187.922 18.261C187.091 18.261 186.328 18.4409 185.633 18.8007C184.938 19.1482 184.38 19.6321 183.958 20.2525C183.549 20.8729 183.331 21.5988 183.307 22.4301V28.5349C183.307 29.4531 183.499 30.272 183.884 30.9917C184.268 31.7114 184.82 32.2759 185.54 32.6854C186.26 33.0949 187.128 33.2996 188.146 33.2996C188.853 33.2996 189.498 33.2004 190.081 33.0018C190.677 32.8033 191.186 32.5179 191.608 32.1457C192.03 31.761 192.34 31.3019 192.538 30.7684H201.919C201.596 32.7537 200.833 34.4784 199.629 35.9425C198.426 37.3943 196.831 38.5234 194.846 39.33C192.873 40.1241 190.565 40.5211 187.922 40.5211ZM216.385 23.9191V40H206.111V11.4117H215.864V16.8465H216.162C216.782 15.0349 217.874 13.6141 219.437 12.5843C221.013 11.5544 222.85 11.0395 224.947 11.0395C226.969 11.0395 228.725 11.5048 230.214 12.4354C231.715 13.3536 232.875 14.6192 233.694 16.2323C234.526 17.8453 234.935 19.6879 234.923 21.7601V40H224.649V23.9191C224.661 22.5046 224.301 21.394 223.569 20.5875C222.85 19.781 221.845 19.3777 220.554 19.3777C219.71 19.3777 218.972 19.5638 218.339 19.9361C217.719 20.2959 217.241 20.8171 216.906 21.4995C216.571 22.1695 216.397 22.9761 216.385 23.9191ZM253.768 40.5211C250.666 40.5211 248.01 39.9069 245.802 38.6785C243.593 37.4377 241.899 35.713 240.72 33.5044C239.542 31.2833 238.952 28.7086 238.952 25.7803C238.952 22.852 239.542 20.2835 240.72 18.0749C241.899 15.8538 243.593 14.1291 245.802 12.9007C248.01 11.6599 250.666 11.0395 253.768 11.0395C256.572 11.0395 258.998 11.5482 261.045 12.5657C263.105 13.5707 264.699 14.9977 265.828 16.8465C266.957 18.6829 267.528 20.8419 267.541 23.3235H258.011C257.875 21.8221 257.44 20.6806 256.708 19.8989C255.989 19.1047 255.058 18.7077 253.917 18.7077C253.023 18.7077 252.241 18.9682 251.571 19.4894C250.901 19.9981 250.38 20.7736 250.008 21.8159C249.636 22.8458 249.45 24.1424 249.45 25.7059C249.45 27.2693 249.636 28.5721 250.008 29.6144C250.38 30.6443 250.901 31.4198 251.571 31.9409C252.241 32.4497 253.023 32.704 253.917 32.704C254.673 32.704 255.343 32.5303 255.927 32.1829C256.51 31.8231 256.981 31.3019 257.341 30.6195C257.713 29.9246 257.937 29.0809 258.011 28.0882H267.541C267.503 30.6071 266.926 32.8033 265.81 34.6769C264.693 36.5381 263.111 37.9775 261.064 38.9949C259.029 40.0124 256.597 40.5211 253.768 40.5211ZM285.478 40.5211C282.426 40.5211 279.795 39.938 277.587 38.7716C275.39 37.5928 273.697 35.9053 272.505 33.7091C271.327 31.5004 270.737 28.8575 270.737 25.7803C270.737 22.8272 271.333 20.2463 272.524 18.0376C273.715 15.829 275.397 14.1105 277.568 12.8821C279.739 11.6537 282.302 11.0395 285.255 11.0395C287.414 11.0395 289.368 11.3745 291.118 12.0445C292.867 12.7146 294.362 13.6886 295.603 14.9666C296.844 16.2323 297.799 17.7709 298.469 19.5825C299.139 21.394 299.474 23.4352 299.474 25.7059V28.0882H273.939V22.4301H290.019C290.007 21.6112 289.796 20.8915 289.387 20.2711C288.99 19.6383 288.45 19.1482 287.767 18.8007C287.097 18.4409 286.334 18.261 285.478 18.261C284.647 18.261 283.884 18.4409 283.189 18.8007C282.494 19.1482 281.936 19.6321 281.514 20.2525C281.104 20.8729 280.887 21.5988 280.862 22.4301V28.5349C280.862 29.4531 281.055 30.272 281.439 30.9917C281.824 31.7114 282.376 32.2759 283.096 32.6854C283.815 33.0949 284.684 33.2996 285.701 33.2996C286.409 33.2996 287.054 33.2004 287.637 33.0018C288.233 32.8033 288.741 32.5179 289.163 32.1457C289.585 31.761 289.895 31.3019 290.094 30.7684H299.474C299.152 32.7537 298.389 34.4784 297.185 35.9425C295.982 37.3943 294.387 38.5234 292.402 39.33C290.429 40.1241 288.121 40.5211 285.478 40.5211Z" fill="black"/>
<path d="M0.884078 52.9266V49.9952C2.24897 49.9952 3.19509 49.7315 3.72243 49.2041C4.24978 48.669 4.51345 47.8315 4.51345 46.6915V44.8768C4.51345 43.2017 4.77325 41.9066 5.29284 40.9915C5.82018 40.0687 6.52589 39.4095 7.40997 39.014C8.3018 38.6185 9.30996 38.3819 10.4344 38.3044C11.5589 38.2191 12.7183 38.1764 13.9126 38.1764V42.8295C12.982 42.8295 12.2918 42.9342 11.842 43.1435C11.3922 43.3529 11.0975 43.6709 10.9579 44.0974C10.8183 44.524 10.7485 45.0629 10.7485 45.7144V48.2735C10.7485 48.8552 10.6167 49.4252 10.353 49.9835C10.0971 50.5341 9.62016 51.0305 8.92221 51.4725C8.22425 51.9145 7.22773 52.2674 5.93263 52.5311C4.63753 52.7947 2.95468 52.9266 0.884078 52.9266ZM13.9126 67.3975C12.7183 67.3975 11.5589 67.3549 10.4344 67.2696C9.30996 67.192 8.3018 66.9555 7.40997 66.56C6.52589 66.1645 5.82018 65.5053 5.29284 64.5824C4.77325 63.6673 4.51345 62.3722 4.51345 60.6971V58.8825C4.51345 57.7425 4.24978 56.9088 3.72243 56.3815C3.19509 55.8464 2.24897 55.5788 0.884078 55.5788V52.6474C2.95468 52.6474 4.63753 52.7792 5.93263 53.0429C7.22773 53.3066 8.22425 53.6594 8.92221 54.1015C9.62016 54.5435 10.0971 55.0437 10.353 55.6021C10.6167 56.1527 10.7485 56.7188 10.7485 57.3004V59.8596C10.7485 60.5033 10.8183 61.0422 10.9579 61.4765C11.0975 61.9031 11.3922 62.221 11.842 62.4304C12.2918 62.6398 12.982 62.7445 13.9126 62.7445V67.3975ZM0.884078 55.5788V49.9952H6.00242V55.5788H0.884078ZM24.664 62.3257C22.7253 62.3257 21.0657 61.9418 19.6853 61.1741C18.3049 60.3986 17.2463 59.3206 16.5096 57.9402C15.7728 56.5521 15.4045 54.9429 15.4045 53.1127C15.4045 51.2825 15.7728 49.6772 16.5096 48.2968C17.2463 46.9086 18.3049 45.8307 19.6853 45.0629C21.0657 44.2874 22.7253 43.8997 24.664 43.8997C26.4167 43.8997 27.9328 44.2176 29.2124 44.8535C30.4997 45.4817 31.4962 46.3735 32.202 47.529C32.9077 48.6768 33.2644 50.0262 33.2722 51.5772H27.3163C27.231 50.6388 26.9595 49.9254 26.502 49.4368C26.0522 48.9405 25.4706 48.6923 24.7571 48.6923C24.1987 48.6923 23.7102 48.8552 23.2914 49.1809C22.8726 49.4988 22.5469 49.9835 22.3142 50.6349C22.0816 51.2786 21.9653 52.089 21.9653 53.0662C21.9653 54.0433 22.0816 54.8576 22.3142 55.509C22.5469 56.1527 22.8726 56.6374 23.2914 56.9631C23.7102 57.281 24.1987 57.44 24.7571 57.44C25.2302 57.44 25.6489 57.3314 26.0134 57.1143C26.3779 56.8894 26.6726 56.5637 26.8975 56.1372C27.1301 55.7029 27.2697 55.1755 27.3163 54.5551H33.2722C33.2489 56.1294 32.8883 57.5021 32.1903 58.6731C31.4924 59.8363 30.5036 60.7359 29.224 61.3718C27.9522 62.0078 26.4322 62.3257 24.664 62.3257ZM44.5296 62.3257C42.5908 62.3257 40.9313 61.9418 39.5509 61.1741C38.1705 60.3986 37.1119 59.3206 36.3752 57.9402C35.6384 56.5521 35.2701 54.9429 35.2701 53.1127C35.2701 51.2825 35.6384 49.6772 36.3752 48.2968C37.1119 46.9086 38.1705 45.8307 39.5509 45.0629C40.9313 44.2874 42.5908 43.8997 44.5296 43.8997C46.4684 43.8997 48.128 44.2874 49.5084 45.0629C50.8888 45.8307 51.9473 46.9086 52.6841 48.2968C53.4208 49.6772 53.7892 51.2825 53.7892 53.1127C53.7892 54.9429 53.4208 56.5521 52.6841 57.9402C51.9473 59.3206 50.8888 60.3986 49.5084 61.1741C48.128 61.9418 46.4684 62.3257 44.5296 62.3257ZM44.5761 57.5796C45.119 57.5796 45.5882 57.3974 45.9837 57.0329C46.3792 56.6684 46.6855 56.1488 46.9027 55.4741C47.1198 54.7994 47.2284 53.9968 47.2284 53.0662C47.2284 52.1278 47.1198 51.3251 46.9027 50.6582C46.6855 49.9835 46.3792 49.4639 45.9837 49.0994C45.5882 48.735 45.119 48.5527 44.5761 48.5527C44.0023 48.5527 43.5098 48.735 43.0988 49.0994C42.6878 49.4639 42.3737 49.9835 42.1566 50.6582C41.9394 51.3251 41.8308 52.1278 41.8308 53.0662C41.8308 53.9968 41.9394 54.7994 42.1566 55.4741C42.3737 56.1488 42.6878 56.6684 43.0988 57.0329C43.5098 57.3974 44.0023 57.5796 44.5761 57.5796ZM62.8161 38.1764V62H56.3949V38.1764H62.8161ZM72.5089 38.1764V62H66.0877V38.1764H72.5089ZM84.3422 62.3257C82.4345 62.3257 80.7904 61.9612 79.41 61.2322C78.0373 60.4955 76.9788 59.4408 76.2343 58.0682C75.4975 56.6878 75.1292 55.0359 75.1292 53.1127C75.1292 51.267 75.5014 49.6539 76.2459 48.2735C76.9904 46.8931 78.0412 45.819 79.3983 45.0513C80.7555 44.2835 82.3569 43.8997 84.2026 43.8997C85.552 43.8997 86.7734 44.1091 87.8669 44.5278C88.9603 44.9466 89.8948 45.5554 90.6703 46.3541C91.4458 47.1452 92.043 48.1068 92.4618 49.239C92.8805 50.3713 93.0899 51.647 93.0899 53.0662V54.5551H77.13V51.0188H87.1806C87.1728 50.507 87.041 50.0572 86.785 49.6694C86.5369 49.2739 86.1995 48.9676 85.773 48.7505C85.3542 48.5256 84.8773 48.4131 84.3422 48.4131C83.8226 48.4131 83.3457 48.5256 82.9114 48.7505C82.4771 48.9676 82.1281 49.2701 81.8645 49.6578C81.6085 50.0456 81.4728 50.4992 81.4573 51.0188V54.8343C81.4573 55.4082 81.5775 55.92 81.8179 56.3698C82.0583 56.8196 82.4034 57.1725 82.8532 57.4284C83.303 57.6843 83.8459 57.8123 84.4818 57.8123C84.9238 57.8123 85.3271 57.7502 85.6916 57.6261C86.0638 57.5021 86.3818 57.3237 86.6455 57.091C86.9091 56.8506 87.103 56.5637 87.2271 56.2302H93.0899C92.8883 57.471 92.4114 58.549 91.6591 59.4641C90.9069 60.3714 89.9103 61.0771 88.6695 61.5812C87.4365 62.0776 85.994 62.3257 84.3422 62.3257ZM104.318 62.3257C102.38 62.3257 100.72 61.9418 99.3395 61.1741C97.9591 60.3986 96.9006 59.3206 96.1638 57.9402C95.4271 56.5521 95.0587 54.9429 95.0587 53.1127C95.0587 51.2825 95.4271 49.6772 96.1638 48.2968C96.9006 46.9086 97.9591 45.8307 99.3395 45.0629C100.72 44.2874 102.38 43.8997 104.318 43.8997C106.071 43.8997 107.587 44.2176 108.867 44.8535C110.154 45.4817 111.151 46.3735 111.856 47.529C112.562 48.6768 112.919 50.0262 112.926 51.5772H106.971C106.885 50.6388 106.614 49.9254 106.156 49.4368C105.706 48.9405 105.125 48.6923 104.411 48.6923C103.853 48.6923 103.364 48.8552 102.946 49.1809C102.527 49.4988 102.201 49.9835 101.969 50.6349C101.736 51.2786 101.62 52.089 101.62 53.0662C101.62 54.0433 101.736 54.8576 101.969 55.509C102.201 56.1527 102.527 56.6374 102.946 56.9631C103.364 57.281 103.853 57.44 104.411 57.44C104.884 57.44 105.303 57.3314 105.668 57.1143C106.032 56.8894 106.327 56.5637 106.552 56.1372C106.784 55.7029 106.924 55.1755 106.971 54.5551H112.926C112.903 56.1294 112.543 57.5021 111.845 58.6731C111.147 59.8363 110.158 60.7359 108.878 61.3718C107.606 62.0078 106.086 62.3257 104.318 62.3257ZM126.231 44.1323V48.7854H114.459V44.1323H126.231ZM116.739 39.8515H123.16V56.2535C123.16 56.5017 123.203 56.711 123.288 56.8817C123.373 57.0445 123.505 57.1686 123.684 57.2539C123.862 57.3314 124.091 57.3702 124.37 57.3702C124.564 57.3702 124.789 57.347 125.045 57.3004C125.308 57.2539 125.502 57.2151 125.626 57.1841L126.557 61.6976C126.27 61.7829 125.859 61.8876 125.324 62.0116C124.797 62.1357 124.168 62.2171 123.439 62.2559C121.966 62.3335 120.729 62.1822 119.729 61.8022C118.728 61.4145 117.976 60.8057 117.472 59.9759C116.968 59.1461 116.723 58.107 116.739 56.8584V39.8515ZM128.851 62V44.1323H135.273V62H128.851ZM132.062 42.2711C131.193 42.2711 130.449 41.9842 129.829 41.4103C129.208 40.8364 128.898 40.1462 128.898 39.3397C128.898 38.5332 129.208 37.843 129.829 37.2691C130.449 36.6952 131.193 36.4083 132.062 36.4083C132.938 36.4083 133.683 36.6952 134.296 37.2691C134.916 37.843 135.226 38.5332 135.226 39.3397C135.226 40.1462 134.916 40.8364 134.296 41.4103C133.683 41.9842 132.938 42.2711 132.062 42.2711ZM156.552 44.1323L150.549 62H143.104L137.102 44.1323H143.849L146.734 55.951H146.92L149.805 44.1323H156.552ZM166.396 62.3257C164.488 62.3257 162.844 61.9612 161.463 61.2322C160.091 60.4955 159.032 59.4408 158.288 58.0682C157.551 56.6878 157.183 55.0359 157.183 53.1127C157.183 51.267 157.555 49.6539 158.299 48.2735C159.044 46.8931 160.095 45.819 161.452 45.0513C162.809 44.2835 164.41 43.8997 166.256 43.8997C167.605 43.8997 168.827 44.1091 169.92 44.5278C171.014 44.9466 171.948 45.5554 172.724 46.3541C173.499 47.1452 174.096 48.1068 174.515 49.239C174.934 50.3713 175.143 51.647 175.143 53.0662V54.5551H159.183V51.0188H169.234C169.226 50.507 169.094 50.0572 168.839 49.6694C168.59 49.2739 168.253 48.9676 167.827 48.7505C167.408 48.5256 166.931 48.4131 166.396 48.4131C165.876 48.4131 165.399 48.5256 164.965 48.7505C164.531 48.9676 164.182 49.2701 163.918 49.6578C163.662 50.0456 163.526 50.4992 163.511 51.0188V54.8343C163.511 55.4082 163.631 55.92 163.871 56.3698C164.112 56.8196 164.457 57.1725 164.907 57.4284C165.357 57.6843 165.899 57.8123 166.535 57.8123C166.977 57.8123 167.381 57.7502 167.745 57.6261C168.117 57.5021 168.435 57.3237 168.699 57.091C168.963 56.8506 169.157 56.5637 169.281 56.2302H175.143C174.942 57.471 174.465 58.549 173.713 59.4641C172.96 60.3714 171.964 61.0771 170.723 61.5812C169.49 62.0776 168.048 62.3257 166.396 62.3257ZM189.675 52.6474V55.5788C188.318 55.5788 187.372 55.8464 186.837 56.3815C186.31 56.9088 186.046 57.7425 186.046 58.8825V60.6971C186.046 62.3722 185.782 63.6673 185.255 64.5824C184.735 65.5053 184.03 66.1645 183.138 66.56C182.254 66.9555 181.25 67.192 180.125 67.2696C179.008 67.3549 177.849 67.3975 176.647 67.3975V62.7445C177.578 62.7445 178.268 62.6398 178.718 62.4304C179.167 62.221 179.462 61.9031 179.602 61.4765C179.741 61.0422 179.811 60.5033 179.811 59.8596V57.3004C179.811 56.7188 179.939 56.1527 180.195 55.6021C180.459 55.0437 180.939 54.5435 181.637 54.1015C182.335 53.6594 183.332 53.3066 184.627 53.0429C185.922 52.7792 187.605 52.6474 189.675 52.6474ZM176.647 38.1764C177.849 38.1764 179.008 38.2191 180.125 38.3044C181.25 38.3819 182.254 38.6185 183.138 39.014C184.03 39.4095 184.735 40.0687 185.255 40.9915C185.782 41.9066 186.046 43.2017 186.046 44.8768V46.6915C186.046 47.8315 186.31 48.669 186.837 49.2041C187.372 49.7315 188.318 49.9952 189.675 49.9952V52.9266C187.605 52.9266 185.922 52.7947 184.627 52.5311C183.332 52.2674 182.335 51.9145 181.637 51.4725C180.939 51.0305 180.459 50.5341 180.195 49.9835C179.939 49.4252 179.811 48.8552 179.811 48.2735V45.7144C179.811 45.0629 179.741 44.524 179.602 44.0974C179.462 43.6709 179.167 43.3529 178.718 43.1435C178.268 42.9342 177.578 42.8295 176.647 42.8295V38.1764ZM189.675 49.9952V55.5788H184.557V49.9952H189.675Z" fill="#4707FF"/>
</svg>
