<svg width="77" height="84" viewBox="0 0 77 84" fill="none" xmlns="http://www.w3.org/2000/svg">
<g filter="url(#filter0_d_37_558)">
<path d="M30.5196 21.9145L36.3321 24.6432C35.009 26.8047 33.9566 28.8412 33.1749 30.7527C32.4077 32.6611 31.9246 34.5481 31.7256 36.4137C31.5412 38.2763 31.6542 40.221 32.0647 42.2479C32.6702 45.2373 33.8414 47.8347 35.5784 50.0401C37.3124 52.231 39.7196 54.4103 42.7999 56.578L38.5335 61.4831C34.5116 59.2388 31.4244 56.6621 29.2717 53.7532C27.116 50.8297 25.6587 47.4941 24.8997 43.7465C24.1348 39.9698 24.1745 36.3059 25.0189 32.7549C25.8603 29.1894 27.6938 25.5759 30.5196 21.9145Z" fill="#CFCFFF"/>
<path d="M30.5196 21.9145L30.94 21.0231L30.2282 20.6889L29.7447 21.3153L30.5196 21.9145ZM36.3321 24.6432L37.1677 25.1542L37.7419 24.2162L36.7525 23.7517L36.3321 24.6432ZM33.1749 30.7527L32.2671 30.384L32.2649 30.3895L33.1749 30.7527ZM31.7256 36.4137L30.7498 36.3148L30.749 36.3222L31.7256 36.4137ZM35.5784 50.0401L34.8067 50.6526L34.8082 50.6544L35.5784 50.0401ZM42.7999 56.578L43.538 57.2222L44.2556 56.3971L43.3669 55.7717L42.7999 56.578ZM38.5335 61.4831L38.0523 62.3434L38.7466 62.7308L39.2715 62.1273L38.5335 61.4831ZM29.2717 53.7532L28.4813 54.341L28.4823 54.3424L29.2717 53.7532ZM25.0189 32.7549L25.9734 32.9778L25.9738 32.9761L25.0189 32.7549ZM30.0992 22.806L35.9117 25.5346L36.7525 23.7517L30.94 21.0231L30.0992 22.806ZM35.4965 24.1322C34.1515 26.3293 33.0729 28.4136 32.2671 30.384L34.0826 31.1213C34.8402 29.2687 35.8665 27.2801 37.1677 25.1542L35.4965 24.1322ZM32.2649 30.3895C31.4669 32.3746 30.9593 34.3504 30.7498 36.3148L32.7014 36.5127C32.8899 34.7459 33.3485 32.9476 34.0848 31.1158L32.2649 30.3895ZM30.749 36.3222C30.5539 38.2924 30.675 40.3362 31.1029 42.4491L33.0266 42.0468C32.6335 40.1059 32.5284 38.2601 32.7022 36.5053L30.749 36.3222ZM31.1029 42.4491C31.7362 45.5759 32.9674 48.3171 34.8067 50.6526L36.35 49.4277C34.7154 47.3522 33.6041 44.8986 33.0266 42.0468L31.1029 42.4491ZM34.8082 50.6544C36.6166 52.9393 39.1008 55.1803 42.2329 57.3844L43.3669 55.7717C40.3383 53.6404 38.0081 51.5228 36.3485 49.4259L34.8082 50.6544ZM42.0619 55.9339L37.7954 60.839L39.2715 62.1273L43.538 57.2222L42.0619 55.9339ZM39.0146 60.6228C35.0817 58.4281 32.1121 55.9356 30.0611 53.164L28.4823 54.3424C30.7366 57.3886 33.9416 60.0494 38.0523 62.3434L39.0146 60.6228ZM30.0621 53.1654C27.9952 50.3623 26.5936 47.1601 25.8615 43.5454L23.9379 43.9477C24.7238 47.8281 26.2369 51.2971 28.4813 54.341L30.0621 53.1654ZM25.8615 43.5454C25.1233 39.9003 25.1641 36.3814 25.9734 32.9778L24.0643 32.5321C23.1849 36.2304 23.1463 40.0393 23.9379 43.9477L25.8615 43.5454ZM25.9738 32.9761C26.7755 29.5789 28.5331 26.0917 31.2945 22.5137L29.7447 21.3153C26.8546 25.0602 24.945 28.7999 24.0639 32.5337L25.9738 32.9761Z" fill="#4707FF"/>
<path d="M46.4887 38.858C46.4946 37.5338 46.9385 36.4349 47.8202 35.5611C48.7169 34.6873 49.8719 34.2537 51.2853 34.2602C52.6987 34.2666 53.8647 34.7109 54.7832 35.5929C55.7016 36.4749 56.1579 37.578 56.1519 38.9022C56.146 40.2263 55.6798 41.3177 54.7535 42.1764C53.8273 43.0203 52.6574 43.439 51.244 43.4325C49.8306 43.426 48.6795 42.9893 47.7907 42.1223C46.9168 41.2553 46.4828 40.1672 46.4887 38.858ZM46.5469 25.9141C46.5529 24.5899 46.9968 23.491 47.8785 22.6172C48.7752 21.7434 49.9302 21.3098 51.3436 21.3163C52.757 21.3227 53.923 21.767 54.8414 22.649C55.7599 23.531 56.2162 24.6341 56.2102 25.9583C56.2043 27.2824 55.7381 28.3738 54.8118 29.2325C53.8855 30.0764 52.7157 30.4951 51.3023 30.4886C49.8889 30.4821 48.7378 30.0454 47.849 29.1784C46.9751 28.3114 46.541 27.2233 46.5469 25.9141Z" fill="#CFCFFF"/>
<path d="M47.8202 35.5611L47.1344 34.8573L47.1286 34.8631L47.8202 35.5611ZM54.7832 35.5929L55.4637 34.8842L54.7832 35.5929ZM54.7535 42.1764L55.4153 42.9029L55.4216 42.8971L54.7535 42.1764ZM47.7907 42.1223L47.0987 42.8199L47.1046 42.8256L47.7907 42.1223ZM47.8785 22.6172L47.1927 21.9134L47.1868 21.9192L47.8785 22.6172ZM54.8414 22.649L54.1609 23.3577L54.1609 23.3577L54.8414 22.649ZM54.8118 29.2325L55.4736 29.959L55.4798 29.9532L54.8118 29.2325ZM47.849 29.1784L47.1569 29.876L47.1629 29.8818L47.849 29.1784ZM47.4713 38.8625C47.4761 37.7797 47.8285 36.9363 48.5119 36.2591L47.1286 34.8631C46.0485 35.9334 45.5131 37.288 45.506 38.8535L47.4713 38.8625ZM48.506 36.2648C49.1937 35.5947 50.0891 35.2373 51.2809 35.2428L51.2897 33.2776C49.6547 33.2701 48.24 33.7799 47.1344 34.8573L48.506 36.2648ZM51.2809 35.2428C52.4723 35.2482 53.3866 35.6141 54.1026 36.3016L55.4637 34.8842C54.3427 33.8077 52.9252 33.285 51.2897 33.2776L51.2809 35.2428ZM54.1026 36.3016C54.8185 36.9891 55.1741 37.8305 55.1693 38.8977L57.1346 38.9067C57.1417 37.3255 56.5848 35.9608 55.4637 34.8842L54.1026 36.3016ZM55.1693 38.8977C55.1645 39.9646 54.8018 40.7918 54.0855 41.4558L55.4216 42.8971C56.5579 41.8437 57.1274 40.488 57.1346 38.9067L55.1693 38.8977ZM54.0917 41.45C53.3712 42.1064 52.4495 42.4554 51.2484 42.4499L51.2396 44.4151C52.8654 44.4225 54.2833 43.9341 55.4153 42.9029L54.0917 41.45ZM51.2484 42.4499C50.0517 42.4444 49.1576 42.083 48.4768 41.4189L47.1046 42.8256C48.2014 43.8956 49.6095 44.4077 51.2396 44.4151L51.2484 42.4499ZM48.4827 41.4247C47.8087 40.7561 47.4665 39.9269 47.4713 38.8625L45.506 38.8535C45.499 40.4076 46.0248 41.7546 47.0987 42.8199L48.4827 41.4247ZM47.5296 25.9186C47.5344 24.8358 47.8868 23.9924 48.5702 23.3152L47.1868 21.9192C46.1067 22.9895 45.5714 24.3441 45.5643 25.9096L47.5296 25.9186ZM48.5643 23.3209C49.252 22.6508 50.1474 22.2934 51.3392 22.2989L51.348 20.3337C49.713 20.3262 48.2983 20.836 47.1927 21.9134L48.5643 23.3209ZM51.3392 22.2989C52.5306 22.3043 53.4449 22.6702 54.1609 23.3577L55.522 21.9403C54.401 20.8638 52.9834 20.3411 51.348 20.3337L51.3392 22.2989ZM54.1609 23.3577C54.8767 24.0452 55.2324 24.8866 55.2276 25.9538L57.1928 25.9628C57.2 24.3816 56.6431 23.0169 55.522 21.9403L54.1609 23.3577ZM55.2276 25.9538C55.2228 27.0207 54.86 27.8479 54.1438 28.5119L55.4798 29.9532C56.6162 28.8998 57.1857 27.5441 57.1928 25.9628L55.2276 25.9538ZM54.15 28.5061C53.4295 29.1625 52.5077 29.5115 51.3067 29.506L51.2979 31.4712C52.9237 31.4786 54.3416 30.9902 55.4736 29.959L54.15 28.5061ZM51.3067 29.506C50.11 29.5005 49.2159 29.1391 48.5351 28.475L47.1629 29.8818C48.2597 30.9517 49.6678 31.4638 51.2979 31.4712L51.3067 29.506ZM48.541 28.4808C47.867 27.8122 47.5248 26.983 47.5296 25.9186L45.5643 25.9096C45.5573 27.4637 46.0831 28.8107 47.157 29.876L48.541 28.4808Z" fill="#4707FF"/>
</g>
<defs>
<filter id="filter0_d_37_558" x="0.886108" y="0.859131" width="75.3449" height="82.6389" filterUnits="userSpaceOnUse" color-interpolation-filters="sRGB">
<feFlood flood-opacity="0" result="BackgroundImageFix"/>
<feColorMatrix in="SourceAlpha" type="matrix" values="0 0 0 0 0 0 0 0 0 0 0 0 0 0 0 0 0 0 127 0" result="hardAlpha"/>
<feOffset/>
<feGaussianBlur stdDeviation="10"/>
<feComposite in2="hardAlpha" operator="out"/>
<feColorMatrix type="matrix" values="0 0 0 0 0.752941 0 0 0 0 0.752941 0 0 0 0 1 0 0 0 0.4 0"/>
<feBlend mode="normal" in2="BackgroundImageFix" result="effect1_dropShadow_37_558"/>
<feBlend mode="normal" in="SourceGraphic" in2="effect1_dropShadow_37_558" result="shape"/>
</filter>
</defs>
</svg>
