<svg width="48" height="48" viewBox="0 0 48 48" fill="none" xmlns="http://www.w3.org/2000/svg">
<path d="M44.2319 44.2523C45.1751 43.3202 45.2496 41.8565 44.4556 40.8404L44.4294 40.7123L44.2102 40.498L37.4126 33.8521L37.3107 33.6972L37.254 33.6108L37.1807 33.5379C36.6913 33.0507 36.027 32.7803 35.3383 32.7803C34.6574 32.7803 34.0002 33.0447 33.5124 33.5216C28.0343 38.5356 19.5935 38.8061 13.79 34.1476C7.9912 29.4929 6.63197 21.3694 10.5944 15.1582C14.5631 8.93709 22.6526 6.54486 29.4984 9.59758C36.3363 12.6468 39.7773 20.1649 37.5801 27.1553L37.5798 27.1562C37.3004 28.0478 37.531 29.0138 38.1735 29.6881C38.8135 30.36 39.7635 30.6409 40.6657 30.4378C41.5682 30.2346 42.3052 29.5728 42.5846 28.6847C45.5529 19.3104 41.0639 9.23976 32.06 4.97824C23.0639 0.720382 12.2277 3.52189 6.55964 11.5963C0.885129 19.6799 2.10733 30.6055 9.42294 37.2969C16.515 43.7838 27.2711 44.4071 35.0774 38.8994L40.5562 44.2561L40.5578 44.2576C41.5747 45.2475 43.2096 45.2475 44.2265 44.2576L44.2319 44.2523Z" fill="#4707FF" stroke="#4707FF" stroke-width="2"/>
</svg>
