<svg width="484" height="538" viewBox="0 0 484 538" fill="none" xmlns="http://www.w3.org/2000/svg">
<path d="M204.714 456.926L181.791 432.483C193.172 421.81 198.999 412.212 199.272 403.692C199.485 395.106 195.134 386.06 186.219 376.555L172.028 361.423C158.929 347.456 150.968 334.625 148.144 322.932C145.325 311.113 146.055 300.098 150.333 289.887C154.677 279.615 161.234 269.759 170.004 260.319C178.713 250.814 188.046 241.392 198.005 232.053L234.391 270.851C226.632 278.129 221.695 284.399 219.582 289.662C217.469 294.925 217.498 299.881 219.67 304.529C221.841 309.177 225.474 314.217 230.568 319.649L250.581 340.988C255.129 345.838 258.487 351.622 260.655 358.34C262.827 364.932 262.731 372.8 260.368 381.944C258.005 391.088 252.455 401.823 243.718 414.149C234.981 426.475 221.98 440.734 204.714 456.926ZM426.512 475.707C416.554 485.046 406.553 493.757 396.51 501.839C386.527 509.986 376.271 515.897 365.742 519.573C355.277 523.189 344.238 523.211 332.624 519.64C321.136 516.073 308.842 507.305 295.743 493.338L281.552 478.207C272.637 468.701 263.919 463.811 255.398 463.538C246.817 463.2 236.836 468.368 225.455 479.041L202.531 454.598C219.796 438.406 234.86 426.346 247.72 418.417C260.581 410.488 271.65 405.637 280.926 403.865C290.203 402.093 298.091 402.534 304.591 405.189C311.096 407.718 316.622 411.407 321.17 416.257L341.183 437.596C346.216 442.963 351.013 446.912 355.573 449.441C360.073 451.906 365.016 452.253 370.404 450.482C375.792 448.71 382.366 444.186 390.125 436.908L426.512 475.707ZM225.455 479.041L181.791 432.483L224.469 392.458L268.133 439.016L225.455 479.041Z" fill="#4707FF" fill-opacity="0.1"/>
<path d="M390.027 151.802L406.049 181.234C392.346 188.694 384.288 196.512 381.875 204.689C379.505 212.944 381.436 222.794 387.666 234.24L397.585 252.46C406.74 269.278 411.211 283.701 410.995 295.729C410.745 307.876 407.262 318.352 400.548 327.155C393.755 336 384.926 343.885 374.06 350.81C363.236 357.813 351.829 364.578 339.838 371.105L314.406 324.388C323.749 319.301 330.107 314.478 333.479 309.917C336.85 305.357 338.071 300.553 337.141 295.508C336.212 290.463 333.966 284.67 330.406 278.129L316.418 252.435C313.239 246.595 311.448 240.152 311.043 233.104C310.603 226.178 312.679 218.588 317.27 210.335C321.862 202.082 329.939 193.092 341.501 183.366C353.062 173.641 369.238 163.119 390.027 151.802ZM180.125 77.7202C192.116 71.1927 203.99 65.2841 215.746 59.9946C227.46 54.6271 238.875 51.4917 249.991 50.5882C261.029 49.7271 271.717 52.4882 282.056 58.8715C292.274 65.2194 301.961 76.8025 311.116 93.6207L321.035 111.84C327.266 123.286 334.469 130.215 342.646 132.628C350.866 135.118 361.827 132.633 375.531 125.173L391.553 154.605C370.764 165.922 353.147 173.796 338.703 178.227C324.259 182.659 312.325 184.563 302.901 183.939C293.478 183.316 285.955 180.901 280.334 176.693C274.677 172.606 270.259 167.643 267.08 161.803L253.093 136.109C249.575 129.646 245.928 124.616 242.153 121.019C238.42 117.499 233.724 115.918 228.063 116.274C222.403 116.63 214.901 119.351 205.557 124.438L180.125 77.7202ZM375.531 125.173L406.049 181.234L354.66 209.209L324.142 153.148L375.531 125.173Z" fill="#4707FF" fill-opacity="0.1"/>
</svg>
